<svg width="22" height="23" viewBox="0 0 22 23" fill="none" xmlns="http://www.w3.org/2000/svg">
<path d="M0.339998 11.2343C0.126807 5.62122 5.04338 0.434034 10.6621 0.366735C13.5258 0.122483 16.3119 1.23456 18.4791 3.04833C17.5901 4.02581 16.6856 4.99199 15.7194 5.89653C13.8115 4.73739 11.5144 3.85403 9.28461 4.63856C5.68813 5.66263 3.5101 9.90904 4.84101 13.4274C5.94321 17.102 10.4127 19.1186 13.9155 17.575C15.7293 16.9255 16.9251 15.252 17.4499 13.4538C15.3712 13.4123 13.2919 13.4382 11.2132 13.3808C11.208 12.144 11.2029 10.9119 11.208 9.67514C14.6746 9.66996 18.1464 9.65961 21.6182 9.69067C21.8314 12.721 21.3843 15.964 19.4143 18.3962C16.7167 21.868 11.7328 22.8869 7.67839 21.5249C3.3755 20.1116 0.246345 15.7767 0.339998 11.2343Z" fill="#0047FD"/>
</svg>
